<svg width="159" height="87" viewBox="0 0 159 87" fill="none" xmlns="http://www.w3.org/2000/svg">
<g clip-path="url(#clip0_5_4)">
<path d="M112.269 55.9064C110.078 56.4085 104.311 56.6977 104.311 56.6977L103.581 58.9802C103.581 58.9802 106.456 58.7367 108.556 58.9497C108.556 58.9497 109.241 58.8737 109.317 59.7258C109.331 60.2743 109.311 60.8232 109.256 61.3692C109.256 61.3692 109.211 61.8866 108.48 62.0083C107.689 62.1453 102.272 62.3431 102.272 62.3431L101.389 65.3104C101.389 65.3104 101.07 65.9951 101.8 65.7973C102.485 65.6147 108.161 64.5495 108.906 64.7017C109.698 64.8995 110.58 65.9495 110.322 66.9233C110.017 68.1102 104.357 71.7318 100.902 71.4732C100.902 71.4732 99.0916 71.5949 97.5547 69.145C96.1243 66.8168 98.1025 62.3887 98.1025 62.3887C98.1025 62.3887 97.2047 60.3193 97.859 59.6345C97.859 59.6345 98.2546 59.2845 99.3807 59.1932L100.765 56.3173C100.765 56.3173 99.1829 56.4238 98.2394 55.2673C97.3568 54.1565 97.296 53.6543 97.9655 53.35C98.6807 53 105.27 51.7979 109.804 51.95C109.804 51.95 111.387 51.7979 112.741 54.5369C112.726 54.5369 113.395 55.6477 112.269 55.9064ZM95.2113 66.9538C94.633 68.3233 93.0961 69.7841 91.1941 68.8711C89.292 67.9581 86.3095 61.8257 86.3095 61.8257C86.3095 61.8257 85.1682 59.5432 84.9552 59.5889C84.9552 59.5889 84.7117 59.1476 84.5595 61.6431C84.4074 64.1387 84.59 68.9928 83.6009 69.7537C82.6575 70.5145 81.5162 70.2102 80.9227 69.3124C80.3901 68.4298 80.1619 66.3299 80.451 62.6474C80.801 58.965 81.6531 55.039 82.7487 53.8065C83.8444 52.5739 84.7269 53.4717 85.0617 53.7913C85.0617 53.7913 86.5225 55.1151 88.942 59.0106L89.368 59.7258C89.368 59.7258 91.5593 63.4083 91.7875 63.393C91.7875 63.393 91.9701 63.5604 92.1223 63.4387C92.3505 63.3778 92.2592 62.1909 92.2592 62.1909C92.2592 62.1909 91.8027 58.1889 89.8093 51.4022C89.8093 51.4022 89.505 50.5501 89.718 49.7588C89.9311 48.9676 90.7223 49.3328 90.7223 49.3328C90.7223 49.3328 93.8266 50.8849 95.3178 55.9368C96.7938 61.0344 95.7895 65.5843 95.2113 66.9538ZM79.9641 53.9739C79.7054 54.4912 79.5532 55.2369 78.2446 55.4347C78.2446 55.4347 65.7212 56.2868 65.1277 57.1694C65.1277 57.1694 64.6864 57.6868 65.3712 57.8389C66.056 57.9911 68.8863 58.3563 70.2558 58.4324C71.7166 58.4476 76.6468 58.4932 78.412 60.6997C78.412 60.6997 79.4619 61.7496 79.4163 64.1235C79.3706 66.5581 78.9446 67.4103 78.0011 68.2928C77.012 69.1145 68.5211 72.9187 63.043 67.0755C63.043 67.0755 60.5171 64.2604 63.9104 62.1301C63.9104 62.1301 66.3603 60.654 72.5839 62.3887C72.5839 62.3887 74.4708 63.0735 74.3795 63.7582C74.273 64.4887 72.8274 65.2647 70.7275 65.2191C68.6885 65.1582 67.1972 64.1843 67.4863 64.3365C67.7602 64.443 65.2951 63.1496 64.5343 64.0321C63.7734 64.8386 63.956 65.3408 64.7017 65.8429C66.6038 66.9233 73.9535 66.5429 76.1447 64.1082C76.1447 64.1082 77.012 63.1191 75.6882 62.3127C74.3643 61.5518 70.5753 61.0953 69.0993 61.0192C67.6842 60.9431 62.4192 61.0344 61.6583 59.6345C61.6583 59.6345 60.8975 58.6911 61.7344 56.0129C62.617 53.213 68.7493 52.1326 71.397 51.8892C71.397 51.8892 78.6859 51.6305 80.025 53.1217C80.1154 53.403 80.0936 53.7083 79.9641 53.9739ZM59.2693 70.3928C58.3867 71.0471 56.515 70.758 55.9825 70.0276C55.4499 69.3732 55.2673 66.7712 55.3738 62.6931C55.4803 58.5693 55.5716 53.4565 56.4542 52.65C57.3976 51.8283 57.9759 52.5435 58.3411 53.1065C58.7367 53.6543 59.2084 54.263 59.3149 55.5564C59.4214 56.8498 59.7106 63.6365 59.7106 63.6365C59.7106 63.6365 60.1062 69.7537 59.2693 70.3928ZM61.1714 48.511C58.5997 49.3632 56.8346 49.0741 55.3434 48.435C54.689 49.5762 54.3086 49.9262 53.8065 50.0023C53.0761 50.0784 52.4217 48.9067 52.3 48.5263C52.1783 48.2371 51.8283 47.7502 52.2543 46.5937C50.7935 45.2851 50.687 43.52 50.9305 42.333C51.2957 40.9635 53.7608 35.7594 61.2627 35.1507C61.2627 35.1507 64.9299 34.8768 65.5538 36.8398H65.6603C65.6603 36.8398 69.221 36.855 69.145 40.0201C69.0993 43.2004 65.1886 47.1568 61.1714 48.511ZM54.1717 41.4657C53.4108 42.683 53.3804 43.4134 53.7304 43.9156C54.5977 42.5917 56.1803 40.507 58.5084 38.9245C56.7129 39.0767 55.2064 39.8527 54.1717 41.4657ZM64.5343 39.4266C62.1757 39.7766 58.5237 42.9417 56.7889 45.5286C59.4519 46.0155 64.1539 45.8329 66.2386 41.5874C66.2233 41.5874 67.2276 38.9549 64.5343 39.4266ZM128.566 63.9409C127.151 66.406 123.18 71.5492 117.884 70.3471C116.134 74.5926 114.674 78.8685 113.837 85.29C113.837 85.29 113.654 86.5378 112.619 86.0965C111.6 85.7313 109.895 84.027 109.561 81.6684C109.195 78.5642 110.58 73.3144 113.395 67.3038C112.574 65.9647 112.011 64.0474 112.498 61.3236C112.498 61.3236 113.213 56.2716 118.28 51.7066C118.28 51.7066 118.889 51.174 119.239 51.3414C119.634 51.5088 119.452 53.1522 119.132 53.9434C118.812 54.7347 116.545 58.6606 116.545 58.6606C116.545 58.6606 115.13 61.3084 115.526 63.393C118.189 59.2997 124.245 51.037 128.003 53.6391C129.266 54.5369 129.845 56.4999 129.845 58.615C129.829 60.4866 129.388 62.4648 128.566 63.9409ZM127.471 57.4585C127.471 57.4585 127.258 55.8303 125.675 57.6259C124.306 59.1324 121.841 61.9779 119.847 65.8277C121.932 65.5995 123.941 64.4582 124.549 63.88C125.538 62.9974 127.836 60.6236 127.471 57.4585ZM53.5934 59.528C53.3043 63.2104 51.8891 69.4037 41.8613 72.4622C35.242 74.4556 28.9879 73.497 25.5794 72.6296C25.5033 73.9839 25.3511 74.5622 25.1381 74.7904C24.849 75.0795 22.6882 76.3273 21.5013 74.5622C20.9687 73.7252 20.6948 72.2036 20.5426 70.8493C12.8734 67.319 9.34307 62.2366 9.20612 62.0083C9.03873 61.8409 7.2888 60.0149 9.03873 57.7781C10.6821 55.7542 16.0537 53.7304 20.8926 52.9087C21.06 48.7697 21.5469 45.6503 22.1252 44.2199C22.8251 42.5613 23.7077 44.0525 24.4685 45.1786C25.1076 46.0155 25.4881 49.6219 25.5185 52.4978C28.6836 52.3457 30.5552 52.5739 34.0855 53.213C38.681 54.05 41.7548 56.3933 41.4809 59.0563C41.2831 61.6736 38.8788 62.7539 37.9658 62.83C37.0071 62.9061 35.5159 62.2214 35.5159 62.2214C34.4964 61.7344 35.4398 61.3083 36.6724 60.7758C38.0115 60.1214 37.7071 59.4519 37.7071 59.4519C37.205 57.9911 31.24 56.9716 25.3055 56.9716C25.275 60.2432 25.4424 65.6756 25.5185 68.8406C29.6727 69.6319 32.7769 69.4798 32.7769 69.4798C32.7769 69.4798 47.9328 69.0537 48.3893 59.3758C48.8458 49.698 33.279 40.3853 21.7599 37.4332C10.2561 34.4203 3.7433 36.5202 3.18028 36.8094C2.57161 37.1137 3.13463 37.205 3.13463 37.205C3.71415 37.3107 4.28411 37.4634 4.8389 37.6615C5.98016 38.0267 5.09759 38.6201 5.09759 38.6201C3.13463 39.244 0.928196 38.8484 0.502126 37.9506C0.0760568 37.0528 0.791245 36.2463 1.61295 35.0899C2.43466 33.8725 3.33244 33.9182 3.33244 33.9182C17.5601 28.9879 34.892 37.905 34.892 37.905C51.1283 46.1372 53.8978 55.7847 53.5934 59.528ZM10.6517 59.0258C9.03873 59.8171 10.1496 60.9584 10.1496 60.9584C13.1777 64.2148 16.9058 66.2538 20.4513 67.5168C20.8622 61.9018 20.8013 59.9236 20.8469 57.0933C15.308 57.4737 12.1125 58.3563 10.6517 59.0258Z" fill="white"/>
<path d="M158.696 57.8693V59.878C158.696 59.9821 158.677 60.0853 158.637 60.1817C158.598 60.2781 158.539 60.3656 158.466 60.4393C158.392 60.5129 158.305 60.5712 158.208 60.6106C158.112 60.6501 158.008 60.67 157.904 60.6692H148.333C148.333 61.1714 148.348 61.6127 148.348 62.0235C148.362 64.7326 148.225 67.4402 147.937 70.1341C147.919 70.328 147.83 70.5083 147.686 70.6403C147.543 70.7723 147.356 70.8467 147.161 70.8492H145.092C144.989 70.8493 144.886 70.8277 144.792 70.7858C144.698 70.7438 144.613 70.6825 144.544 70.6058C144.474 70.5284 144.421 70.4366 144.389 70.3367C144.358 70.2369 144.348 70.1314 144.361 70.0275C144.653 67.3696 144.795 64.6974 144.788 62.0235C144.788 61.5974 144.788 61.1562 144.772 60.6692H135.307C135.203 60.67 135.1 60.6501 135.004 60.6106C134.907 60.5712 134.82 60.5129 134.746 60.4393C134.673 60.3656 134.614 60.2781 134.575 60.1817C134.535 60.0853 134.515 59.9821 134.516 59.878V57.8693C134.515 57.7652 134.535 57.6619 134.575 57.5656C134.614 57.4692 134.673 57.3817 134.746 57.308C134.82 57.2344 134.907 57.1761 135.004 57.1366C135.1 57.0972 135.203 57.0773 135.307 57.0781H144.635C144.447 53.8478 144.035 50.6345 143.403 47.4611C143.386 47.3653 143.39 47.2671 143.414 47.1727C143.437 47.0784 143.48 46.9901 143.54 46.9133C143.6 46.8375 143.676 46.7763 143.763 46.7341C143.85 46.692 143.945 46.67 144.042 46.6698H146.279C146.448 46.6706 146.612 46.7302 146.743 46.8385C146.873 46.9467 146.962 47.0968 146.994 47.2633C147.609 50.5055 148.016 53.7838 148.211 57.0781H157.904C158.113 57.0816 158.312 57.1661 158.46 57.3137C158.608 57.4614 158.692 57.6606 158.696 57.8693Z" fill="white"/>
<path d="M145.67 41.9374C141.098 30.6914 133.546 20.9044 123.828 13.6285C114.11 6.35258 102.593 1.86304 90.5141 0.64251C78.4356 -0.578017 66.2528 1.51663 55.2756 6.70127C44.2983 11.8859 34.9418 19.9644 28.2119 30.0683C28.145 30.1677 28.102 30.2813 28.0862 30.4C28.0703 30.5188 28.0821 30.6396 28.1206 30.7531C28.1564 30.8675 28.2194 30.9716 28.3042 31.0564C28.389 31.1412 28.4931 31.2042 28.6075 31.24L30.3422 31.8335C30.4411 31.8624 30.5435 31.8778 30.6466 31.8791C30.8051 31.8769 30.9609 31.8371 31.101 31.7631C31.2412 31.689 31.3619 31.5828 31.453 31.453C37.2497 22.9109 45.0496 15.918 54.1717 11.0851C63.2937 6.25222 73.4603 3.72634 83.7835 3.72809C96.221 3.73022 108.382 7.39551 118.75 14.2665C129.117 21.1374 137.231 30.9097 142.079 42.3635C142.148 42.5291 142.264 42.6709 142.413 42.771C142.561 42.8712 142.736 42.9252 142.916 42.9265H144.985C145.103 42.9278 145.219 42.8991 145.323 42.8432C145.427 42.7873 145.515 42.706 145.579 42.6069C145.652 42.5136 145.7 42.4023 145.716 42.2846C145.732 42.1669 145.716 42.047 145.67 41.9374ZM142.49 42.6526C142.532 42.6837 142.578 42.7092 142.627 42.7287C142.581 42.6982 142.535 42.683 142.49 42.6526Z" fill="url(#paint0_radial_5_4)"/>
</g>
<defs>
<radialGradient id="paint0_radial_5_4" cx="0" cy="0" r="1" gradientUnits="userSpaceOnUse" gradientTransform="translate(143.725 42.8504) scale(115.666 115.666)">
<stop offset="0.01" stop-color="white"/>
<stop offset="0.03" stop-color="#CBFFFF"/>
<stop offset="0.06" stop-color="#96FFFF"/>
<stop offset="0.08" stop-color="#68FFFF"/>
<stop offset="0.11" stop-color="#43FFFF"/>
<stop offset="0.14" stop-color="#25FFFF"/>
<stop offset="0.16" stop-color="#11FFFF"/>
<stop offset="0.19" stop-color="#04FFFF"/>
<stop offset="0.22" stop-color="#00FFFF"/>
<stop offset="1" stop-color="#0000FF" stop-opacity="0"/>
</radialGradient>
<clipPath id="clip0_5_4">
<rect width="159" height="86.5378" fill="white"/>
</clipPath>
</defs>
</svg>
